<?xml version="1.0" encoding="iso-8859-1"?>
<!-- Generator: Adobe Illustrator 19.0.0, SVG Export Plug-In . SVG Version: 6.00 Build 0)  -->
<svg xmlns="http://www.w3.org/2000/svg" xmlns:xlink="http://www.w3.org/1999/xlink" version="1.1" id="Layer_1" x="0px" y="0px" viewBox="0 0 512 512" style="enable-background:new 0 0 512 512;" xml:space="preserve" width="512" height="512">
<g>
	<path style="fill:#61729B;" d="M451,436v76h-60l-15-30l-15,30h-60l-15-30h-60l-15,30h-60l-15-30l-15,30H61v-76   c0-42.001,29.7-78.3,70.8-86.4L226,331h60l94.2,18.6C421.3,357.7,451,393.999,451,436z"/>
	<path style="fill:#47568C;" d="M451,436v76h-60l-15-30l-15,30h-60l-15-30h-30V331h30l94.2,18.6C421.3,357.7,451,393.999,451,436z"/>
	<path style="fill:#FDE4E4;" d="M361,91v105c0,47.399-31.8,86.999-75,100.199V331l-30,30l-30-30v-34.801   c-43.2-13.2-75-52.8-75-100.199v-75l98.699-30l30-30L361,91z"/>
	<path style="fill:#FCCED3;" d="M361,91v105c0,47.399-31.8,86.999-75,100.199V331l-30,30V84.699L279.699,61L361,91z"/>
	<path style="fill:#61729B;" d="M361,76v15h-81.301l-30,30H151V76c0-41.4,33.6-76,75-76h60C327.4,0,361,34.6,361,76z"/>
	<polygon style="fill:#25D9F8;" points="301,512 211,512 226,391 256,361 286,391  "/>
	<rect x="121" y="421" style="fill:#47568C;" width="30" height="91"/>
	<rect x="361" y="421" style="fill:#2C3B73;" width="30" height="91"/>
	<polygon style="fill:#00C0F1;" points="286,391 301,512 256,512 256,361  "/>
	<path style="fill:#47568C;" d="M361,76v15h-81.301L256,114.699V0h30C327.4,0,361,34.6,361,76z"/>
	<path style="fill:#FCCED3;" d="M301,196c0,24.899-20.099,45-45,45s-45-20.101-45-45h30c0,8.399,6.599,15,15,15s15-6.601,15-15H301z   "/>
	<path style="fill:#FAAAAA;" d="M301,196c0,24.899-20.099,45-45,45v-30c8.401,0,15-6.601,15-15H301z"/>
	<rect x="226" y="331" style="fill:#00C0F1;" width="60" height="60"/>
	<rect x="256" y="331" style="fill:#009AE4;" width="30" height="60"/>
</g>















</svg>
