<svg id="icon" height="512" viewBox="0 0 128 128" width="512" xmlns="http://www.w3.org/2000/svg"><path d="m121.371 115.201h-114.97l.085-11.494h115.028z" fill="#707583"/><path d="m121.371 116.2h-114.971a1 1 0 0 1 -1-1.007l.086-11.493a1 1 0 0 1 1-.993h115.028a1 1 0 0 1 1 1.012l-.143 11.494a1 1 0 0 1 -1 .987zm-113.963-2h112.976l.117-9.494h-113.022z" fill="#2f3a5a"/><path d="m126.928 124.478h-125.928v-11.844h126z" fill="#9297ab"/><path d="m126.928 125.478h-125.928a1 1 0 0 1 -1-1v-11.844a1 1 0 0 1 1-1h126a1 1 0 0 1 1 1.006l-.072 11.845a1 1 0 0 1 -1 .993zm-124.928-2h123.934l.061-9.844h-123.995z" fill="#2f3a5a"/><path d="m90.136 29.3a1 1 0 0 1 -1-1v-12.956a1 1 0 1 1 2 0v12.956a1 1 0 0 1 -1 1z" fill="#2f3a5a"/><path d="m125.377 97.059h-122.754l10.782-37.225h101.19z" fill="#d9e2e9"/><path d="m125.558 107.352h-124.008l1.073-10.293h122.754z" fill="#c1cdd3"/><path d="m125.558 108.352h-122.935a1 1 0 0 1 -1-1v-10.293a1.03 1.03 0 0 1 .039-.278l10.781-37.225a1 1 0 0 1 .961-.722h101.19a1 1 0 0 1 .961.722l10.782 37.225a1.024 1.024 0 0 1 .039.261l.181 10.293a1 1 0 0 1 -1 1.018zm-121.935-2h120.917l-.16-9.143-10.536-36.375h-99.688l-10.533 36.366z" fill="#2f3a5a"/><path d="m61.788 28.3h52.806v31.534h-52.806z" fill="#d9e2e9"/><path d="m114.595 60.834h-52.807a1 1 0 0 1 -1-1v-31.534a1 1 0 0 1 1-1h52.807a1 1 0 0 1 1 1v31.534a1 1 0 0 1 -1 1zm-51.807-2h50.807v-29.534h-50.807z" fill="#2f3a5a"/><path d="m68.731 34.775h39.983v17.916h-39.983z" fill="#81dafc"/><path d="m108.71 34.77v3.36h-36.73v14.56h-3.25v-17.92z" fill="#3dbce9"/><path d="m108.714 53.691h-39.984a1 1 0 0 1 -1-1v-17.916a1 1 0 0 1 1-1h39.983a1 1 0 0 1 1 1v17.916a1 1 0 0 1 -.999 1zm-38.983-2h37.983v-15.916h-37.984z" fill="#2f3a5a"/><path d="m13.405 18.182h48.384v41.652h-48.384z" fill="#d9e2e9"/><path d="m61.788 60.834h-48.388a1 1 0 0 1 -1-1v-41.651a1 1 0 0 1 1-1h48.388a1 1 0 0 1 1 1v41.651a1 1 0 0 1 -1 1zm-47.384-2h46.384v-39.651h-46.388z" fill="#2f3a5a"/><rect fill="#81dafc" height="12.643" rx="1.556" width="40.74" x="69.765" y="3.522"/><path d="m110.51 5.08v1.76h-36.68a1.553 1.553 0 0 0 -1.56 1.55v7.78h-.95a1.553 1.553 0 0 1 -1.55-1.56v-9.53a1.553 1.553 0 0 1 1.55-1.56h37.63a1.562 1.562 0 0 1 1.56 1.56z" fill="#3dbce9"/><path d="m108.949 17.165h-37.628a2.559 2.559 0 0 1 -2.557-2.556v-9.531a2.559 2.559 0 0 1 2.557-2.556h37.628a2.559 2.559 0 0 1 2.557 2.556v9.532a2.559 2.559 0 0 1 -2.557 2.555zm-37.628-12.643a.557.557 0 0 0 -.557.556v9.532a.557.557 0 0 0 .557.556h37.628a.557.557 0 0 0 .557-.556v-9.532a.557.557 0 0 0 -.557-.556z" fill="#2f3a5a"/><path d="m20.91 8.61h33.373v39.421h-33.373z" fill="#f0f5f9"/><path d="m54.283 49.031h-33.373a1 1 0 0 1 -1-1v-39.421a1 1 0 0 1 1-1h33.373a1 1 0 0 1 1 1v39.421a1 1 0 0 1 -1 1zm-32.373-2h31.373v-37.421h-31.373z" fill="#2f3a5a"/><path d="m56.79 49.031h-39.4a1 1 0 0 1 0-2h39.4a1 1 0 0 1 0 2z" fill="#2f3a5a"/><g fill="#c1cdd3"><path d="m47.564 17.553h-19.935a1 1 0 0 1 0-2h19.935a1 1 0 0 1 0 2z"/><path d="m47.564 25.039h-19.935a1 1 0 0 1 0-2h19.935a1 1 0 0 1 0 2z"/><path d="m47.564 32.523h-19.935a1 1 0 0 1 0-2h19.935a1 1 0 1 1 0 2z"/><path d="m47.564 40.008h-19.935a1 1 0 0 1 0-2h19.935a1 1 0 0 1 0 2z"/><path d="m25.618 66.205h-3.87a1.841 1.841 0 0 0 -1.748 1.238c-.177.691.327 1.256 1.128 1.256h3.926a1.783 1.783 0 0 0 1.723-1.256c.151-.686-.37-1.238-1.159-1.238z"/><path d="m39.057 66.205h-3.87a1.669 1.669 0 0 0 -1.65 1.237 1.111 1.111 0 0 0 1.228 1.258h3.926a1.617 1.617 0 0 0 1.624-1.256 1.142 1.142 0 0 0 -1.258-1.239z"/><path d="m52.5 66.205h-3.874a1.514 1.514 0 0 0 -1.552 1.237 1.215 1.215 0 0 0 1.326 1.258h3.926a1.467 1.467 0 0 0 1.525-1.256 1.251 1.251 0 0 0 -1.351-1.239z"/><path d="m65.935 66.205h-3.87a1.375 1.375 0 0 0 -1.454 1.237 1.333 1.333 0 0 0 1.426 1.258h3.926a1.333 1.333 0 0 0 1.426-1.256 1.375 1.375 0 0 0 -1.454-1.239z"/><path d="m79.374 66.205h-3.874a1.251 1.251 0 0 0 -1.357 1.237 1.467 1.467 0 0 0 1.53 1.258h3.927a1.215 1.215 0 0 0 1.327-1.256 1.514 1.514 0 0 0 -1.553-1.239z"/><path d="m92.813 66.205h-3.87a1.142 1.142 0 0 0 -1.259 1.237 1.617 1.617 0 0 0 1.625 1.258h3.926a1.111 1.111 0 0 0 1.228-1.256 1.669 1.669 0 0 0 -1.65-1.239z"/><path d="m106.252 66.205h-3.869c-.79 0-1.31.552-1.161 1.237a1.783 1.783 0 0 0 1.723 1.256h3.926c.8 0 1.306-.564 1.128-1.256a1.841 1.841 0 0 0 -1.747-1.237z"/><path d="m24.365 71.758h-4a1.927 1.927 0 0 0 -1.815 1.32 1.067 1.067 0 0 0 1.155 1.34h4.056a1.867 1.867 0 0 0 1.79-1.34 1.094 1.094 0 0 0 -1.186-1.32z"/><path d="m38.243 71.758h-4a1.746 1.746 0 0 0 -1.711 1.32 1.162 1.162 0 0 0 1.261 1.34h4.056a1.691 1.691 0 0 0 1.684-1.34 1.194 1.194 0 0 0 -1.29-1.32z"/><path d="m52.12 71.758h-4a1.583 1.583 0 0 0 -1.607 1.32 1.27 1.27 0 0 0 1.367 1.34h4.056a1.534 1.534 0 0 0 1.578-1.34 1.308 1.308 0 0 0 -1.394-1.32z"/><path d="m66 71.758h-4a1.437 1.437 0 0 0 -1.5 1.32 1.394 1.394 0 0 0 1.472 1.34h4.056a1.394 1.394 0 0 0 1.472-1.34 1.437 1.437 0 0 0 -1.5-1.32z"/><path d="m79.875 71.758h-4a1.308 1.308 0 0 0 -1.4 1.32 1.534 1.534 0 0 0 1.578 1.34h4.056a1.27 1.27 0 0 0 1.367-1.34 1.583 1.583 0 0 0 -1.601-1.32z"/><path d="m93.753 71.758h-4a1.194 1.194 0 0 0 -1.294 1.32 1.691 1.691 0 0 0 1.684 1.34h4.057a1.162 1.162 0 0 0 1.261-1.34 1.746 1.746 0 0 0 -1.708-1.32z"/><path d="m107.631 71.758h-4a1.094 1.094 0 0 0 -1.19 1.32 1.867 1.867 0 0 0 1.79 1.34h4.056a1.067 1.067 0 0 0 1.155-1.34 1.927 1.927 0 0 0 -1.811-1.32z"/><path d="m23.028 77.686h-4.128a2.022 2.022 0 0 0 -1.891 1.414 1.119 1.119 0 0 0 1.182 1.433h4.2a1.959 1.959 0 0 0 1.857-1.433 1.147 1.147 0 0 0 -1.22-1.414z"/><path d="m37.374 77.686h-4.131a1.831 1.831 0 0 0 -1.777 1.414 1.218 1.218 0 0 0 1.3 1.433h4.2a1.774 1.774 0 0 0 1.739-1.433 1.251 1.251 0 0 0 -1.331-1.414z"/><path d="m51.72 77.686h-4.131a1.659 1.659 0 0 0 -1.666 1.414 1.332 1.332 0 0 0 1.409 1.433h4.2a1.609 1.609 0 0 0 1.63-1.433 1.37 1.37 0 0 0 -1.442-1.414z"/><path d="m66.065 77.686h-4.13a1.506 1.506 0 0 0 -1.554 1.414 1.462 1.462 0 0 0 1.519 1.43h4.2a1.462 1.462 0 0 0 1.519-1.43 1.506 1.506 0 0 0 -1.554-1.414z"/><path d="m80.411 77.686h-4.131a1.37 1.37 0 0 0 -1.442 1.414 1.609 1.609 0 0 0 1.635 1.433h4.2a1.332 1.332 0 0 0 1.404-1.433 1.659 1.659 0 0 0 -1.666-1.414z"/><path d="m94.757 77.686h-4.131a1.251 1.251 0 0 0 -1.331 1.414 1.774 1.774 0 0 0 1.748 1.433h4.2a1.218 1.218 0 0 0 1.3-1.433 1.831 1.831 0 0 0 -1.786-1.414z"/><path d="m109.1 77.686h-4.131a1.147 1.147 0 0 0 -1.22 1.411 1.959 1.959 0 0 0 1.861 1.433h4.2a1.119 1.119 0 0 0 1.182-1.433 2.022 2.022 0 0 0 -1.892-1.411z"/><path d="m21.6 84.028h-4.277a2.127 2.127 0 0 0 -1.968 1.511 1.178 1.178 0 0 0 1.211 1.536h4.344a2.061 2.061 0 0 0 1.939-1.536 1.206 1.206 0 0 0 -1.249-1.511z"/><path d="m36.444 84.028h-4.274a1.925 1.925 0 0 0 -1.848 1.511 1.281 1.281 0 0 0 1.332 1.536h4.346a1.866 1.866 0 0 0 1.817-1.536 1.315 1.315 0 0 0 -1.373-1.511z"/><path d="m51.291 84.028h-4.275a1.743 1.743 0 0 0 -1.729 1.511 1.4 1.4 0 0 0 1.453 1.536h4.344a1.692 1.692 0 0 0 1.7-1.536 1.44 1.44 0 0 0 -1.493-1.511z"/><path d="m66.137 84.028h-4.274a1.582 1.582 0 0 0 -1.609 1.511 1.537 1.537 0 0 0 1.575 1.536h4.344a1.537 1.537 0 0 0 1.575-1.536 1.582 1.582 0 0 0 -1.611-1.511z"/><path d="m80.984 84.028h-4.275a1.44 1.44 0 0 0 -1.49 1.511 1.692 1.692 0 0 0 1.7 1.536h4.344a1.4 1.4 0 0 0 1.453-1.536 1.743 1.743 0 0 0 -1.732-1.511z"/><path d="m95.83 84.028h-4.274a1.315 1.315 0 0 0 -1.371 1.511 1.866 1.866 0 0 0 1.815 1.536h4.344a1.281 1.281 0 0 0 1.332-1.536 1.925 1.925 0 0 0 -1.846-1.511z"/><path d="m110.677 84.028h-4.277a1.206 1.206 0 0 0 -1.251 1.511 2.061 2.061 0 0 0 1.939 1.536h4.344a1.178 1.178 0 0 0 1.211-1.536 2.127 2.127 0 0 0 -1.966-1.511z"/><path d="m20.064 90.828h-4.43a2.244 2.244 0 0 0 -2.053 1.623 1.244 1.244 0 0 0 1.24 1.649h4.5a2.176 2.176 0 0 0 2.023-1.651 1.272 1.272 0 0 0 -1.28-1.621z"/><path d="m35.447 90.828h-4.429a2.029 2.029 0 0 0 -1.925 1.623 1.352 1.352 0 0 0 1.371 1.649h4.5a1.969 1.969 0 0 0 1.892-1.651 1.386 1.386 0 0 0 -1.409-1.621z"/><path d="m50.831 90.828h-4.431a1.838 1.838 0 0 0 -1.8 1.623 1.477 1.477 0 0 0 1.5 1.651h4.5a1.784 1.784 0 0 0 1.762-1.651 1.517 1.517 0 0 0 -1.531-1.623z"/><path d="m66.215 90.828h-4.43a1.667 1.667 0 0 0 -1.669 1.623 1.621 1.621 0 0 0 1.632 1.649h4.5a1.621 1.621 0 0 0 1.632-1.651 1.667 1.667 0 0 0 -1.665-1.621z"/><path d="m81.6 90.828h-4.431a1.517 1.517 0 0 0 -1.541 1.623 1.784 1.784 0 0 0 1.762 1.649h4.5a1.477 1.477 0 0 0 1.5-1.651 1.838 1.838 0 0 0 -1.79-1.621z"/><path d="m96.982 90.828h-4.429a1.386 1.386 0 0 0 -1.412 1.623 1.969 1.969 0 0 0 1.891 1.649h4.5a1.352 1.352 0 0 0 1.371-1.651 2.029 2.029 0 0 0 -1.921-1.621z"/><path d="m112.366 90.828h-4.429a1.272 1.272 0 0 0 -1.284 1.623 2.176 2.176 0 0 0 2.023 1.651h4.5a1.244 1.244 0 0 0 1.241-1.651 2.244 2.244 0 0 0 -2.051-1.623z"/></g></svg>