<svg height="512pt" viewBox="0 -16 512 512" width="512pt" xmlns="http://www.w3.org/2000/svg"><path d="m372.28125 480h-232.5625c-2.542969 0-5.050781-.648438-7.277344-1.882812-81.691406-45.332032-132.441406-130.824219-132.441406-223.117188 0-140.605469 114.839844-255 256-255s256 114.394531 256 255c0 92.292969-50.75 177.785156-132.441406 223.117188-2.226563 1.234374-4.730469 1.882812-7.277344 1.882812zm-228.613281-30h224.664062c70.21875-40.496094 113.667969-114.859375 113.667969-195 0-124.066406-101.382812-225-226-225s-226 100.933594-226 225c0 80.140625 43.449219 154.503906 113.667969 195zm0 0" fill="#2864f0"/><path d="m395.050781 118.4375c-.359375-.457031-.742187-.902344-1.164062-1.324219s-.871094-.804687-1.328125-1.167969c-35.203125-34.578124-83.429688-55.945312-136.558594-55.945312s-101.355469 21.367188-136.558594 55.945312c-.460937.363282-.90625.746094-1.328125 1.167969s-.804687.867188-1.167969 1.324219c-34.578124 35.207031-55.945312 83.433594-55.945312 136.5625 0 8.285156 6.714844 15 15 15h60c8.285156 0 15-6.714844 15-15s-6.714844-15-15-15h-44.3125c3.101562-34.25 16.707031-65.511719 37.574219-90.527344l31.277343 31.28125c2.929688 2.929688 6.769532 4.394532 10.609376 4.394532 3.835937 0 7.675781-1.464844 10.605468-4.394532 5.855469-5.859375 5.855469-15.355468 0-21.214844l-31.28125-31.277343c28.625-23.875 65.425782-38.261719 105.527344-38.261719s76.90625 14.382812 105.53125 38.257812l-31.285156 31.28125c-5.855469 5.859376-5.855469 15.355469 0 21.214844 2.929687 2.929688 6.769531 4.394532 10.605468 4.394532 3.839844 0 7.679688-1.464844 10.609376-4.394532l31.28125-31.285156c20.867187 25.015625 34.480468 56.277344 37.582031 90.53125h-44.324219c-8.285156 0-15 6.714844-15 15s6.714844 15 15 15h60c8.285156 0 15-6.714844 15-15 0-53.128906-21.367188-101.355469-55.949219-136.5625zm0 0" fill="#65b1fc"/><path d="m256 270c-24.8125 0-45-20.1875-45-45 0-17.355469 25.296875-130.738281 30.363281-153.289062 1.539063-6.847657 7.621094-11.710938 14.636719-11.710938s13.097656 4.863281 14.636719 11.710938c5.066406 22.550781 30.363281 135.933593 30.363281 153.289062 0 24.8125-20.1875 45-45 45zm0-124.6875c-8.511719 40.238281-14.953125 73.394531-15 79.691406 0 8.265625 6.730469 14.996094 15 14.996094s14.996094-6.726562 15-14.996094c-.046875-6.296875-6.488281-39.453125-15-79.691406zm0 0" fill="#2864f0"/><path d="m286 420h-60c-24.8125 0-45-20.1875-45-45s20.1875-45 45-45h60c24.8125 0 45 20.1875 45 45s-20.1875 45-45 45zm-60-60c-8.269531 0-15 6.730469-15 15s6.730469 15 15 15h60c8.269531 0 15-6.730469 15-15s-6.730469-15-15-15zm0 0" fill="#b80000"/></svg>