<svg width="24" height="24" viewBox="0 0 24 24" fill="none" xmlns="http://www.w3.org/2000/svg">
<path fill-rule="evenodd" clip-rule="evenodd" d="M1 6C1 4.89543 1.89543 4 3 4H13C14.1046 4 15 4.89543 15 6V7H18L23 12V16H20.95C20.9828 16.1616 21 16.3288 21 16.5C21 17.8807 19.8807 19 18.5 19C17.1193 19 16 17.8807 16 16.5C16 16.3288 16.0172 16.1616 16.05 16H15H14H7.94999C7.98278 16.1616 8 16.3288 8 16.5C8 17.8807 6.88071 19 5.5 19C4.11929 19 3 17.8807 3 16.5C3 16.3288 3.01722 16.1616 3.05001 16H1V6ZM17 9H15V12H20L17 9ZM11 9H9L6 10H11V9ZM8.2 11H11V12H4L8.2 11Z" fill="#B0A8D3"/>
</svg>
