<svg id="Layer_1" enable-background="new 0 0 512 512" height="512" viewBox="0 0 512 512" width="512" xmlns="http://www.w3.org/2000/svg"><g><path d="m400.6 447.733h-257.067c-25.989 0-47.133-21.144-47.133-47.133v-32.133c0-8.284 6.716-15 15-15s15 6.716 15 15v32.133c0 9.447 7.686 17.133 17.133 17.133h257.067c8.284 0 15 6.716 15 15s-6.716 15-15 15z" fill="#ffcb00"/><path d="m111.4 126.4c-8.284 0-15-6.716-15-15v-64.267c0-9.595-7.807-17.133-17.133-17.133h-64.267c-8.284 0-15-6.716-15-15s6.716-15 15-15h64.267c25.808 0 47.133 20.855 47.133 47.133v64.267c0 8.284-6.716 15-15 15z" fill="#ffec29"/><path d="m432.733 383.467h-321.333c-8.284 0-15-6.716-15-15v-257.067c0-8.284 6.716-15 15-15h385.6c8.284 0 15 6.716 15 15v192.8c0 43.78-35.415 79.267-79.267 79.267z" fill="#ff7d47"/><path d="m111.4 383.467h321.333c43.852 0 79.267-35.486 79.267-79.267v-64.267h-415.6v128.533c0 8.285 6.716 15.001 15 15.001z" fill="#ff405c"/><circle cx="207.8" cy="464.867" fill="#3c3a42" r="47.133"/><g fill="#ff405c"><path d="m175.667 319.2c-8.284 0-15-6.716-15-15v-128.533c0-8.284 6.716-15 15-15s15 6.716 15 15v128.533c0 8.284-6.716 15-15 15z"/><path d="m304.2 319.2c-8.284 0-15-6.716-15-15v-128.533c0-8.284 6.716-15 15-15s15 6.716 15 15v128.533c0 8.284-6.716 15-15 15z"/><path d="m239.933 319.2c-8.284 0-15-6.716-15-15v-128.533c0-8.284 6.716-15 15-15s15 6.716 15 15v128.533c0 8.284-6.716 15-15 15z"/><path d="m368.467 319.2c-8.284 0-15-6.716-15-15v-128.533c0-8.284 6.716-15 15-15s15 6.716 15 15v128.533c0 8.284-6.716 15-15 15z"/><path d="m432.733 319.2c-8.284 0-15-6.716-15-15v-128.533c0-8.284 6.716-15 15-15s15 6.716 15 15v128.533c0 8.284-6.715 15-15 15z"/></g><path d="m175.667 319.2c8.284 0 15-6.716 15-15v-64.267h-30v64.267c0 8.284 6.715 15 15 15z" fill="#d01273"/><path d="m304.2 319.2c8.284 0 15-6.716 15-15v-64.267h-30v64.267c0 8.284 6.716 15 15 15z" fill="#d01273"/><path d="m239.933 319.2c8.284 0 15-6.716 15-15v-64.267h-30v64.267c0 8.284 6.716 15 15 15z" fill="#d01273"/><path d="m368.467 319.2c8.284 0 15-6.716 15-15v-64.267h-30v64.267c0 8.284 6.716 15 15 15z" fill="#d01273"/><path d="m432.733 319.2c8.284 0 15-6.716 15-15v-64.267h-30v64.267c0 8.284 6.716 15 15 15z" fill="#d01273"/><path d="m207.8 512v-94.267c25.989 0 47.133 21.144 47.133 47.133s-21.144 47.134-47.133 47.134z" fill="#23232d"/><circle cx="400.6" cy="464.867" fill="#3c3a42" r="47.133"/><path d="m400.6 512v-94.267c25.989 0 47.133 21.144 47.133 47.133s-21.144 47.134-47.133 47.134z" fill="#23232d"/></g></svg>