<svg id="outline" height="512" viewBox="0 0 512 512" width="512" xmlns="http://www.w3.org/2000/svg"><path d="m80 48h-56a16 16 0 0 0 -16 16v424a16 16 0 0 0 16 16h416a16 16 0 0 0 16-16v-24z" fill="#443c3c"/><path d="m104 464a56 56 0 0 1 -56-56v-344a16 16 0 0 1 16-16h376a16 16 0 0 1 16 16v344c0 30.928 17.072 56 48 56z" fill="#fff"/><path d="m456 64a16 16 0 0 0 -16-16h-376a16 16 0 0 0 -16 16v88h408z" fill="#f75252"/><g opacity=".2"><path d="m456 72.4v-8.4a16 16 0 0 0 -16-16h-376a16 16 0 0 0 -16 16v258.377c148.36-220.697 364.051-246.9 408-249.977z" fill="#fff"/></g><circle cx="148" cy="100" fill="#fff" r="28"/><circle cx="380" cy="100" fill="#fff" r="28"/><path d="m240 464h-40a56 56 0 0 1 -56-56v-208h224v208a56 56 0 0 0 56 56z" fill="#17c4e0"/><g opacity=".2"><path d="m144 200v154.007a555.715 555.715 0 0 1 224-122.876v-31.131z" fill="#fff"/></g><path d="m504 456c-18.452 0-40-12.571-40-48v-344a24.027 24.027 0 0 0 -24-24h-48v-16a24.027 24.027 0 0 0 -24-24h-32a24.027 24.027 0 0 0 -24 24v16h-152v-16a24.027 24.027 0 0 0 -24-24h-32a24.027 24.027 0 0 0 -24 24v16h-56a24.027 24.027 0 0 0 -24 24v424a24.027 24.027 0 0 0 24 24h416a24.027 24.027 0 0 0 24-24v-16h40a8 8 0 0 0 0-16zm-176-432a8.009 8.009 0 0 1 8-8h32a8.009 8.009 0 0 1 8 8v16h-48zm-232 0a8.009 8.009 0 0 1 8-8h32a8.009 8.009 0 0 1 8 8v16h-48zm-16 32h64v8.228a36 36 0 1 0 16 1.837v-10.065h216v8.228a36 36 0 1 0 16 1.837v-10.065h48a8.009 8.009 0 0 1 8 8v80h-392v-80a8.009 8.009 0 0 1 8-8zm80 28.038a19.967 19.967 0 1 1 -16-3.638v23.6h16zm232 0a19.967 19.967 0 1 1 -16-3.638v23.6h16zm56 403.962a8.009 8.009 0 0 1 -8 8h-416a8.009 8.009 0 0 1 -8-8v-424a8.009 8.009 0 0 1 8-8h17.376a23.882 23.882 0 0 0 -1.376 8v344a64.072 64.072 0 0 0 64 64h344zm-296-80v-200h208v200a63.85 63.85 0 0 0 21.735 48h-181.735a48.055 48.055 0 0 1 -48-48zm288 48h-16a48.055 48.055 0 0 1 -48-48v-208a8 8 0 0 0 -8-8h-224a8 8 0 0 0 -8 8v208a63.85 63.85 0 0 0 21.736 48h-53.736a48.054 48.054 0 0 1 -48-48v-248h392v248c0 17.385 5.03 33.227 14.163 44.605q1.425 1.776 2.961 3.395z"/><path d="m184 328h144v16h-144z"/><path d="m184 352h96v16h-96z"/><path d="m304 416h40v16h-40z"/><path d="m184 376h96v16h-96z"/><path d="m192 296h16v-40h16v-16h-48v16h16z"/><path d="m248 280h16v16h16v-48a8 8 0 0 0 -8-8h-32a8 8 0 0 0 -8 8v48h16zm16-24v8h-16v-8z"/><path d="m304 290.806 8-10 8 10v5.194h16v-8a8 8 0 0 0 -1.753-5l-12-15 12-15a8 8 0 0 0 1.753-5v-8h-16v5.194l-8 10-8-10v-5.194h-16v8a8 8 0 0 0 1.753 5l12 15-12 15a8 8 0 0 0 -1.753 5v8h16z"/></svg>